<svg width="72" height="72" viewBox="0 0 72 72" fill="none" xmlns="http://www.w3.org/2000/svg">
<path fill-rule="evenodd" clip-rule="evenodd" d="M36 2C17.2223 2 2 17.2223 2 36C2 54.7777 17.2223 70 36 70C54.7777 70 70 54.7777 70 36C70 17.2223 54.7777 2 36 2ZM0 36C0 16.1177 16.1177 0 36 0C55.8823 0 72 16.1177 72 36C72 55.8823 55.8823 72 36 72C16.1177 72 0 55.8823 0 36ZM47.2071 24.7929C47.5976 25.1834 47.5976 25.8166 47.2071 26.2071L37.4142 36L47.2071 45.7929C47.5976 46.1834 47.5976 46.8166 47.2071 47.2071C46.8166 47.5976 46.1834 47.5976 45.7929 47.2071L36 37.4142L26.2071 47.2071C25.8166 47.5976 25.1834 47.5976 24.7929 47.2071C24.4024 46.8166 24.4024 46.1834 24.7929 45.7929L34.5858 36L24.7929 26.2071C24.4024 25.8166 24.4024 25.1834 24.7929 24.7929C25.1834 24.4024 25.8166 24.4024 26.2071 24.7929L36 34.5858L45.7929 24.7929C46.1834 24.4024 46.8166 24.4024 47.2071 24.7929Z" fill="#52595B"/>
</svg>
