<svg width="21" height="16" viewBox="0 0 21 16" fill="currentColor" xmlns="http://www.w3.org/2000/svg">
<path d="M7.97656 1.00001C6.77186 0.998882 5.99251 1.38175 5.31882 1.72099C4.64513 2.06024 4.07604 2.35716 3.03571 2.35716H2.58333V2.80954V3.7143H1.45238H1V4.16668V14.5714V15.0238H1.45238H19.5476H20V14.5714V4.16668V3.7143H19.5476H18.4167V2.80954V2.35716H17.9643C16.9239 2.35716 16.3548 2.06012 15.6812 1.72099C15.0075 1.38187 14.2281 0.999205 13.0234 1.00001C12.1033 0.997751 11.3595 1.3014 10.5 2.00373C9.64046 1.30149 8.89635 0.998554 7.97656 1.00001ZM7.97656 1.90477C8.78276 1.9035 9.22778 2.07457 10.0476 2.78833V11.8501C9.36834 11.3883 8.73198 11.1768 7.97656 11.1786C6.77193 11.1786 5.99248 11.5604 5.31882 11.8996C4.75402 12.1839 4.24475 12.4267 3.4881 12.5004V3.22658C4.45028 3.14315 5.13745 2.82808 5.72173 2.53387C6.39671 2.19397 6.95618 1.90374 7.97656 1.90477ZM13.0234 1.90477C14.0439 1.9041 14.6033 2.19405 15.2783 2.53387C15.8626 2.82801 16.5498 3.1432 17.5119 3.22658V12.5004C16.7553 12.4266 16.246 12.184 15.6812 11.8996C15.0075 11.5603 14.2281 11.1774 13.0234 11.1786C12.268 11.1767 11.6317 11.3883 10.9524 11.8501V2.78833C11.7723 2.07444 12.2176 1.90284 13.0234 1.90477ZM1.90476 4.61906H2.58333V12.9881V13.4405H3.03571C4.25724 13.4405 5.04671 13.0523 5.72173 12.7124C6.39674 12.3726 6.95612 12.0827 7.97656 12.0833C8.83137 12.0811 9.27426 12.2641 10.1961 13.0941L10.5 13.3698L10.8039 13.0941C11.7257 12.2641 12.1686 12.0813 13.0234 12.0833C14.0438 12.0833 14.6033 12.3726 15.2783 12.7124C15.9533 13.0523 16.7427 13.4405 17.9643 13.4405H18.4167V12.9881V4.61906H19.0952V14.1191H1.90476V4.61906Z" fill="currentColor" stroke="currentColor" stroke-width="0.3"/>
</svg>
