<svg width="17" height="19" viewBox="0 0 17 19" fill="none" xmlns="http://www.w3.org/2000/svg">
<path fill-rule="evenodd" clip-rule="evenodd" d="M16.5177 9.06992H13.7888V0.369167C13.7888 0.219542 13.6989 0.0856672 13.5612 0.0282922C13.4234 -0.0290828 13.2648 0.00241722 13.1594 0.108167L12.1149 1.15217L11.0705 0.108167C10.9265 -0.0358328 10.693 -0.0358328 10.549 0.108167L9.50458 1.15217L8.46024 0.108167C8.31624 -0.0358328 8.08281 -0.0358328 7.93869 0.108167L6.89424 1.15217L5.84979 0.108167C5.70579 -0.0358328 5.47236 -0.0358328 5.32836 0.108167L4.28391 1.15217L3.23946 0.108167C3.09557 -0.0358328 2.86202 -0.0358328 2.71802 0.108167L1.67357 1.15217L0.629118 0.108167C0.486018 -0.0347078 0.254606 -0.0358328 0.110268 0.105917C0.0344432 0.180167 -0.00234432 0.280292 0.000115646 0.378167V16.9607C0.000115646 18.0182 0.860306 18.8777 1.91747 18.8777H14.9687H14.9688H14.9692C16.0263 18.8777 16.8864 18.0182 16.8864 16.9607V9.43892C16.8864 9.23529 16.7213 9.06992 16.5177 9.06992ZM0.737681 16.9607V1.25904L1.41291 1.93517C1.55679 2.07917 1.79034 2.07917 1.93434 1.93517L2.97879 0.890042L4.02324 1.93517C4.16724 2.07917 4.40068 2.07917 4.54468 1.93517L5.58913 0.890042L6.63369 1.93517C6.77769 2.07917 7.01113 2.07917 7.15513 1.93517L8.19958 0.890042L9.24403 1.93517C9.38803 2.07917 9.62147 2.07917 9.76547 1.93517L10.8099 0.890042L11.8544 1.93517C11.9985 2.07917 12.2319 2.07917 12.3758 1.93517L13.0516 1.25904V9.43892L13.0519 9.44454L13.0522 9.44904V16.9607C13.0522 17.405 13.2048 17.8145 13.4599 18.1408H1.91747C1.26688 18.1408 0.737681 17.6109 0.737681 16.9607ZM16.1489 16.9607C16.1489 17.6109 15.6197 18.1408 14.9692 18.1408C14.3186 18.1408 13.7894 17.6109 13.7894 16.9607V9.80792H16.1489V16.9607ZM10.7853 9.95529H4.94417C4.74054 9.95529 4.57539 10.1207 4.57539 10.3243C4.57539 10.5279 4.74054 10.6933 4.94417 10.6933H10.7853C10.9889 10.6933 11.1539 10.5279 11.1539 10.3243C11.1539 10.1207 10.9889 9.95529 10.7853 9.95529ZM2.74311 10.0633C2.81162 9.99467 2.90679 9.95529 3.00377 9.95529C3.10074 9.95529 3.19581 9.99467 3.26443 10.0633C3.33294 10.1319 3.37243 10.2275 3.37243 10.3243C3.37243 10.421 3.33294 10.5167 3.26443 10.5853C3.19581 10.6528 3.10074 10.6933 3.00377 10.6933C2.90679 10.6933 2.81162 10.6528 2.74311 10.5853C2.67448 10.5167 2.63499 10.421 2.63499 10.3243C2.63499 10.2275 2.67448 10.1319 2.74311 10.0633ZM10.7853 12.3887H4.94417C4.74054 12.3887 4.57539 12.554 4.57539 12.7577C4.57539 12.9613 4.74054 13.1267 4.94417 13.1267H10.7853C10.9889 13.1267 11.1539 12.9613 11.1539 12.7577C11.1539 12.554 10.9889 12.3887 10.7853 12.3887ZM2.74311 12.4967C2.81162 12.428 2.90679 12.3887 3.00377 12.3887C3.10074 12.3887 3.19581 12.428 3.26443 12.4967C3.33294 12.5653 3.37243 12.6609 3.37243 12.7577C3.37243 12.8544 3.33294 12.95 3.26443 13.0187C3.19581 13.0873 3.10074 13.1267 3.00377 13.1267C2.90679 13.1267 2.81162 13.0873 2.74311 13.0187C2.67448 12.95 2.63499 12.8544 2.63499 12.7577C2.63499 12.6609 2.67448 12.5653 2.74311 12.4967ZM10.7853 14.822H4.94417C4.74054 14.822 4.57539 14.9874 4.57539 15.191C4.57539 15.3947 4.74054 15.56 4.94417 15.56H10.7853C10.9889 15.56 11.1539 15.3947 11.1539 15.191C11.1539 14.9874 10.9889 14.822 10.7853 14.822ZM2.74311 14.93C2.81162 14.8614 2.90679 14.822 3.00377 14.822C3.10074 14.822 3.19581 14.8614 3.26443 14.93C3.33294 14.9987 3.37243 15.0943 3.37243 15.191C3.37243 15.2878 3.33294 15.3834 3.26443 15.452C3.19581 15.5207 3.10074 15.56 3.00377 15.56C2.90679 15.56 2.81162 15.5207 2.74311 15.452C2.67448 15.3834 2.63499 15.2878 2.63499 15.191C2.63499 15.0943 2.67448 14.9987 2.74311 14.93ZM6.87354 3.83529C5.64527 3.83529 4.64582 4.83429 4.64582 6.06279C4.64582 7.29129 5.64527 8.29029 6.87354 8.29029C8.10193 8.29029 9.10127 7.29129 9.10127 6.06279C9.10127 4.83429 8.10193 3.83529 6.87354 3.83529ZM6.87354 7.81667C5.90661 7.81667 5.11989 7.02917 5.11989 6.06279C5.11989 5.09529 5.90661 4.30892 6.87354 4.30892C7.84059 4.30892 8.62731 5.09529 8.62731 6.06279C8.62731 7.02917 7.84059 7.81667 6.87354 7.81667ZM7.03329 5.99417H8.03443C8.13579 5.99417 8.21792 6.07629 8.21792 6.17754C8.21792 6.27879 8.13579 6.36092 8.03443 6.36092H6.84992C6.74867 6.36092 6.66654 6.27879 6.66654 6.17754V4.79042C6.66654 4.68917 6.74867 4.60704 6.84992 4.60704C6.95117 4.60704 7.03329 4.68917 7.03329 4.79042V5.99417Z" fill="currentColor"/>
</svg>
