<svg width="20" height="15" viewBox="0 0 20 15" fill="none" xmlns="http://www.w3.org/2000/svg">
<path fill-rule="evenodd" clip-rule="evenodd" d="M19.1337 4.28707L5.73348 0.0538823C5.63987 0.0225532 4.8916 -0.223067 4.53295 0.677958L3.42991 4.16551H0.958796C0.428708 4.16927 0 4.59911 0 5.12419V13.4302C0 13.9602 0.428708 14.3901 0.958796 14.3901H15.0138C15.349 14.3901 15.6414 14.2184 15.8128 13.9565C15.8128 13.9565 16.2455 14.078 16.3429 14.078C16.7638 14.078 17.1303 13.8086 17.2549 13.4076L19.7573 5.4876C19.8352 5.24574 19.8899 4.48883 19.1337 4.28707ZM4.75513 2.08902L11.3383 4.16551H7.09379L4.36928 3.30459L4.75513 2.08902ZM4.1783 3.91614L4.97732 4.16927H4.10035L4.1783 3.91614ZM15.3335 13.4302H15.3296C15.3296 13.6056 15.1853 13.7497 15.0099 13.7497H0.958796C0.783478 13.7497 0.639239 13.6056 0.639239 13.4302V5.12419C0.639239 4.94874 0.783478 4.80463 0.958796 4.80463H15.0138C15.1892 4.80463 15.3335 4.94874 15.3335 5.12419V13.4302ZM16.6469 13.2159C16.5963 13.38 16.4092 13.4778 16.2455 13.4226L15.9687 13.3374V7.64305L18.1866 8.34482L16.6469 13.2159ZM18.3775 7.73202L15.9687 6.9726V5.63172L18.7634 6.51269L18.3775 7.73202ZM19.1492 5.29587L18.9582 5.90365L15.9532 4.95751C15.8713 4.50888 15.4816 4.16927 15.0138 4.16927H13.4586L4.94612 1.47998L5.1371 0.872199C5.18785 0.709287 5.37094 0.611541 5.53861 0.665427L18.9388 4.89486C19.2078 4.96503 19.1727 5.21441 19.1492 5.29587ZM1.91797 6.08286H5.11015V6.72197H1.91797V6.08286ZM1.91797 8.00145H6.70819V8.64057H1.91797V8.00145ZM13.416 9.91879H1.91797V10.5579H13.416V9.91879ZM1.91797 11.8324H3.83556V12.4715H1.91797V11.8324ZM7.02762 11.8324H5.1099V12.4715H7.02762V11.8324ZM8.30597 11.8324H10.2236V12.4715H8.30597V11.8324ZM12.4608 5.93874C12.6478 5.82972 12.8622 5.7633 13.0961 5.7633C13.8016 5.7633 14.3745 6.33725 14.3745 7.04278C14.3745 7.74706 13.8016 8.32101 13.0961 8.32101C12.8622 8.32101 12.6478 8.25459 12.4608 8.14557C12.2658 8.25835 12.0477 8.32101 11.8177 8.32101C11.1122 8.32101 10.5392 7.74706 10.5392 7.04278C10.5392 6.33725 11.1122 5.7633 11.8177 5.7633C12.0477 5.7633 12.2658 5.82596 12.4608 5.93874ZM11.8177 7.68189C11.8722 7.68189 11.9269 7.67312 11.9814 7.65808C11.88 7.47512 11.8177 7.26835 11.8177 7.04278C11.8177 6.81596 11.88 6.60919 11.9814 6.42622C11.9308 6.41495 11.8722 6.40241 11.8177 6.40241C11.4668 6.40241 11.1785 6.69189 11.1785 7.04278C11.1785 7.39241 11.4668 7.68189 11.8177 7.68189ZM12.4568 7.04278C12.4568 7.39241 12.7453 7.68189 13.0961 7.68189C13.447 7.68189 13.7353 7.39241 13.7353 7.04278C13.7353 6.69189 13.447 6.40241 13.0961 6.40241C12.7453 6.40241 12.4568 6.69189 12.4568 7.04278Z" fill="currentColor"/>
</svg>
