<?xml version="1.0" encoding="utf-8"?>
<!-- Generator: Adobe Illustrator 25.0.0, SVG Export Plug-In . SVG Version: 6.00 Build 0)  -->
<svg version="1.1" id="Layer_1" xmlns="http://www.w3.org/2000/svg" xmlns:xlink="http://www.w3.org/1999/xlink" x="0px" y="0px"
	 viewBox="0 0 4000 2352.9" style="enable-background:new 0 0 4000 2352.9;" xml:space="preserve">
<style type="text/css">
	.st01{fill-rule:evenodd;clip-rule:evenodd;fill:#FFFFFF;}
	.st1{fill-rule:evenodd;clip-rule:evenodd;fill:#C6EFAB;}
	.st2{fill-rule:evenodd;clip-rule:evenodd;fill:#007438;}
	.st3{fill:#C6EFAB;}
	.st4{fill-rule:evenodd;clip-rule:evenodd;fill:#8ACF21;}
	.st5{fill:#8ACF21;}
</style>
<g>
	<path class="st01" d="M2512.8,225.5c41.4-88.1,131-149.2,234.7-149.2c115.5,0,213.4,75.7,246.9,180.1c74.7,4.6,134.7,64.5,134,142.5
		c-0.1,7.4-768.2,5.1-768.2,0c-0.4-118.1,40.1-174.5,133.5-174.5C2500.1,224.4,2506.5,224.8,2512.8,225.5z"/>
	<path class="st01" d="M1926.2,302.8c-59.8-127.3-189.2-215.5-339-215.5c-166.8,0-308.3,109.3-356.6,260.1
		c-107.9,6.6-194.6,93.1-193.5,205.9c0.1,10.6,1109.6,7.3,1109.6,0c0.6-170.6-57.9-252.1-192.9-252.1
		C1944.5,301.2,1935.3,301.7,1926.2,302.8L1926.2,302.8z"/>
	<g>
		<path class="st1" d="M2870.6,1866.8l66.1,66.1c8.3,8.3,21.9,8.3,30.2,0c8.3-8.3,8.3-21.9,0-30.2l-66.1-66.1
			c-8.3-8.3-21.9-8.3-30.2,0C2862.2,1845,2862.2,1858.5,2870.6,1866.8z"/>
		<path class="st1" d="M2936.6,1836.6l-66.1,66.1c-8.3,8.3-8.3,21.9,0,30.2c8.3,8.3,21.9,8.3,30.2,0l66.1-66.1
			c8.3-8.3,8.3-21.9,0-30.2C2958.5,1828.3,2944.9,1828.3,2936.6,1836.6z"/>
	</g>
	<g>
		<path class="st1" d="M1156.7,869.2l66.1,66.1c8.3,8.3,21.8,8.3,30.2,0c8.3-8.3,8.3-21.9,0-30.2l-66.1-66.1
			c-8.3-8.3-21.9-8.3-30.2,0C1148.4,847.4,1148.4,860.9,1156.7,869.2z"/>
		<path class="st1" d="M1222.8,839l-66.1,66.1c-8.3,8.3-8.3,21.9,0,30.2c8.3,8.3,21.9,8.3,30.2,0l66.1-66.1c8.3-8.3,8.3-21.9,0-30.2
			C1244.6,830.7,1231.1,830.7,1222.8,839z"/>
	</g>
	<path class="st1" d="M2761.2,609.8l66.1,66.1c8.3,8.3,21.9,8.3,30.2,0c8.3-8.3,8.3-21.9,0-30.2l-66.1-66.1
		c-8.3-8.3-21.9-8.3-30.2,0C2752.9,587.9,2752.9,601.5,2761.2,609.8z"/>
	<path class="st1" d="M2827.2,579.6l-66.1,66.1c-8.3,8.3-8.3,21.9,0,30.2c8.3,8.3,21.9,8.3,30.2,0l66.1-66.1
		c8.3-8.3,8.3-21.9,0-30.2C2849.1,571.3,2835.6,571.3,2827.2,579.6z"/>
	<g>
		<ellipse class="st1" cx="2094.4" cy="2166.6" rx="757.2" ry="82"/>
		<circle class="st1" cx="2072.6" cy="1425.8" r="697.2"/>
		<path class="st2" d="M2692.1,1702.1c-105.9,236.8-343.6,401.9-619.5,401.9c-374.3,0-678.3-303.9-678.3-678.3
			c0-102.6,22.8-199.8,63.6-287c4.4-9.5,0.4-20.7-9.1-25.2c-9.5-4.4-20.7-0.4-25.2,9.1c-43.1,92.1-67.2,194.8-67.2,303.1
			c0,395.2,320.9,716.1,716.1,716.1c291.3,0,542.3-174.4,654.1-424.3c4.3-9.5,0-20.7-9.6-25
			C2707.6,1688.3,2696.4,1692.6,2692.1,1702.1L2692.1,1702.1z"/>
		<path class="st2" d="M1699,859.8c107.2-70.9,235.6-112.2,373.6-112.2c374.3,0,678.3,303.9,678.3,678.3c0,10.5,8.5,18.9,18.9,18.9
			c10.5,0,18.9-8.5,18.9-18.9c0-395.2-320.9-716.1-716.1-716.1c-145.7,0-281.4,43.6-394.5,118.5c-8.7,5.8-11.1,17.5-5.3,26.2
			C1678.5,863.1,1690.3,865.5,1699,859.8z"/>
		<circle class="st01" cx="2072.6" cy="1425.8" r="569.9"/>
		
			<ellipse transform="matrix(0.7071 -0.7071 0.7071 0.7071 -401.1528 1883.1427)" class="st1" cx="2072.6" cy="1425.8" rx="442.5" ry="442.5"/>
		
			<ellipse transform="matrix(0.7071 -0.7071 0.7071 0.7071 -401.1528 1883.1427)" class="st01" cx="2072.6" cy="1425.8" rx="315.2" ry="315.2"/>
		<path class="st3" d="M1884.7,1425.8c0,103.8,84.1,187.9,187.9,187.9c103.8,0,187.9-84.1,187.9-187.9
			c0-103.8-84.1-187.9-187.9-187.9C1968.8,1237.9,1884.7,1322,1884.7,1425.8z"/>
		
			<ellipse transform="matrix(0.9232 -0.3842 0.3842 0.9232 -388.7443 905.8117)" class="st01" cx="2072.6" cy="1425.8" rx="60.6" ry="60.6"/>
		<rect x="2072.6" y="1407.4" class="st4" width="915.5" height="40.1"/>
		<path class="st5" d="M2988.1,1407.4l83.8-111.9c11-14.7,5-26.8-13.4-26.8h-208.8c-18.4,0-42.5,12-53.4,26.8l-83.8,111.9H2988.1
			L2988.1,1407.4z"/>
		<path class="st5" d="M2988.1,1447.5l83.8,111.9c11,14.7,5,26.8-13.4,26.8h-208.8c-18.4,0-42.5-12.1-53.4-26.8l-83.8-111.9H2988.1
			L2988.1,1447.5z"/>
	</g>
</g>
</svg>
