<?xml version="1.0" encoding="utf-8"?>
<!-- Generator: Adobe Illustrator 25.0.0, SVG Export Plug-In . SVG Version: 6.00 Build 0)  -->
<svg version="1.1" id="Layer_1" xmlns="http://www.w3.org/2000/svg" xmlns:xlink="http://www.w3.org/1999/xlink" x="0px" y="0px"
	 viewBox="0 0 4000 2352.9" style="enable-background:new 0 0 4000 2352.9;" xml:space="preserve">
<style type="text/css">
	.st01{fill-rule:evenodd;clip-rule:evenodd;fill:#FFFFFF;}
	.st1{fill-rule:evenodd;clip-rule:evenodd;fill:#C6EFAB;}
	.st2{fill:#C6EFAB;}
	.st3{fill:#8ACF21;}
	.st4{fill-rule:evenodd;clip-rule:evenodd;fill:#007438;}
	.st5{fill:#FFFFFF;}
</style>
<g>
	<path class="st01" d="M2430.1,239.5c41.4-88.1,131-149.2,234.7-149.2c115.5,0,213.4,75.7,246.9,180.1c74.7,4.6,134.7,64.5,134,142.5
		c-0.1,7.4-768.2,5.1-768.2,0c-0.4-118.1,40.1-174.5,133.5-174.5C2417.4,238.4,2423.8,238.8,2430.1,239.5z"/>
	<path class="st01" d="M1843.4,316.8c-59.8-127.3-189.2-215.5-339-215.5c-166.8,0-308.3,109.3-356.6,260.1
		c-107.9,6.6-194.6,93.1-193.5,205.9c0.1,10.6,1109.6,7.3,1109.6,0c0.6-170.6-57.9-252.1-192.9-252.1
		C1861.8,315.2,1852.5,315.8,1843.4,316.8L1843.4,316.8z"/>
	<g>
		<path class="st1" d="M2591.1,1880.8l66.1,66.1c8.3,8.3,21.9,8.3,30.2,0c8.3-8.3,8.3-21.9,0-30.2l-66.1-66.1
			c-8.3-8.3-21.9-8.3-30.2,0C2582.8,1859,2582.8,1872.5,2591.1,1880.8z"/>
		<path class="st1" d="M2657.1,1850.7l-66.1,66.1c-8.3,8.3-8.3,21.9,0,30.2c8.3,8.3,21.9,8.3,30.2,0l66.1-66.1
			c8.3-8.3,8.3-21.9,0-30.2C2679,1842.3,2665.5,1842.3,2657.1,1850.7z"/>
	</g>
	<g>
		<path class="st1" d="M1264.5,918.2l66.1,66.1c8.3,8.3,21.8,8.3,30.2,0c8.3-8.3,8.3-21.9,0-30.2l-66.1-66.1
			c-8.3-8.3-21.9-8.3-30.2,0C1256.2,896.4,1256.2,909.9,1264.5,918.2z"/>
		<path class="st1" d="M1330.6,888l-66.1,66.1c-8.3,8.3-8.3,21.9,0,30.2c8.3,8.3,21.9,8.3,30.2,0l66.1-66.1c8.3-8.3,8.3-21.9,0-30.2
			C1352.4,879.7,1338.9,879.7,1330.6,888z"/>
	</g>
	<g>
		<path class="st1" d="M2591.1,788.6l66.1,66.1c8.3,8.3,21.9,8.3,30.2,0c8.3-8.3,8.3-21.9,0-30.2l-66.1-66.1
			c-8.3-8.3-21.9-8.3-30.2,0C2582.8,766.7,2582.8,780.2,2591.1,788.6z"/>
		<path class="st1" d="M2657.1,758.4l-66.1,66.1c-8.3,8.3-8.3,21.9,0,30.2c8.3,8.3,21.9,8.3,30.2,0l66.1-66.1
			c8.3-8.3,8.3-21.9,0-30.2C2679,750,2665.5,750,2657.1,758.4z"/>
	</g>
	<g>
		<ellipse class="st1" cx="2011.7" cy="2193.5" rx="724.1" ry="69.2"/>
		<path class="st2" d="M1780.1,1791.1c-1.6,80.5-4.6,231.2-4.6,231.2c-1,51.1,40,93.7,91.1,94.7l241.4,4.7c51.1,1,93.7-40,94.7-91.1
			c0,0,3-150.7,4.5-231.2c-12.9,5.5-25.9,10.1-39,13.9c-71.7,21.1-143,19.7-175.3,19.1C1954.7,1831.7,1861.9,1829.9,1780.1,1791.1z"
			/>
		<path class="st3" d="M1886.1,2117.3c15.4,40.3,54.1,69.2,99.9,70.1c45.7,0.9,85.6-26.5,102.6-66.1L1886.1,2117.3z"/>
		<path class="st4" d="M2099.1,2138.7c-21.8,40-64.7,66.8-113.5,65.9c-53-1-97.7-34.5-115.6-81.1c-3.4-8.8,1-18.7,9.8-22.1
			c8.8-3.4,18.7,1,22.1,9.8c13,33.9,45.7,58.3,84.3,59.1c38.6,0.8,72.1-22.3,86.5-55.7c2.8-6.4,9.1-10.5,16.1-10.4l19.4,0.4
			c41.7,0.8,76.4-32.6,77.3-74.3l1.7-86.6c0.2-9.4,8-17,17.4-16.8c9.4,0.2,17,8,16.8,17.4c-1.6,80.5-1.7,86.6-1.7,86.6
			c-1.2,60.5-51.6,109-112.1,107.8L2099.1,2138.7L2099.1,2138.7z"/>
		<path class="st4" d="M1821.3,2083.3c-17.8-14.2-29.1-36.3-28.6-60.7c0,0,3-150.7,4.6-231.2c0.2-9.4-7.3-17.3-16.8-17.5
			c-9.4-0.2-17.3,7.3-17.4,16.8c-1.6,80.5-4.6,231.2-4.6,231.2l0,0c-0.7,35.4,15.7,67.4,41.5,88.1c7.4,5.9,18.2,4.7,24.1-2.7
			C1829.9,2100,1828.7,2089.2,1821.3,2083.3z"/>
		<path class="st5" d="M1556.7,1180.9c-0.6,29.3,1.7,58,6.6,85.8v0.1c3.5,16.5,7.3,33.3,11.6,50.2c54,208.3,175.4,439.2,205.2,474.2
			c81.8,38.8,174.7,40.6,212.8,41.3c38.1,0.8,130.8,2.6,214-32.9c0.1,0,0.2,0,0.3-0.1c31.2-33.8,161.6-259.7,223.6-465.8
			c5-16.7,9.6-33.3,13.6-49.7l0-0.1c5.9-27.6,9.3-56.2,9.9-85.5c4.8-247.8-192.1-452.7-440-457.6c-182-3.6-340.8,101.8-414.3,256.1
			v0.1C1573.4,1052.9,1558,1115.1,1556.7,1180.9L1556.7,1180.9z"/>
		<path class="st4" d="M1617,997.7l-34.2-1.2v-0.1c0.1-2.3,0.7-4.6,1.7-6.7c76.3-160.2,241.2-269.5,430.1-265.8
			c257.4,5.1,461.9,217.8,456.8,475c-0.6,30.4-4.1,60.1-10.2,88.8l-4.2,7.5l4-6.9c-4.1,16.6-8.7,33.5-13.9,50.5
			c-63,209.1-195.8,438.2-227.4,472.5c-6.4,6.9-17.3,7.4-24.2,0.9c-6.9-6.4-7.4-17.2-0.9-24.2c30.7-33.3,158.6-256.1,219.8-459.1
			c4.9-16.5,9.5-32.7,13.4-48.8l0.1-0.5c5.6-26.3,8.8-53.5,9.3-81.4c4.7-238.4-184.8-435.5-423.3-440.2
			c-175.1-3.4-327.9,97.9-398.6,246.3L1617,997.7L1617,997.7z"/>
		<path class="st4" d="M1546.3,1269c-5-28.7-7.3-58.3-6.7-88.5c0.2-9.4,8-17,17.4-16.8c9.4,0.2,17,8,16.8,17.4
			c-0.5,28.2,1.6,55.8,6.3,82.5l0,0.1c3.4,16.1,7.1,32.4,11.3,48.9c53.2,205.2,172.3,432.9,201.6,467.4c6.1,7.2,5.3,18-1.9,24.1
			c-7.2,6.1-18,5.3-24.1-1.9c-30.2-35.5-153.9-269.6-208.7-481c-4.4-17.2-8.3-34.2-11.8-51C1546.4,1269.8,1546.3,1269.4,1546.3,1269
			L1546.3,1269z"/>
		<path class="st3" d="M2163,1388.8c9.5,0,19.2-1.7,28.6-5.2c41.9-15.7,63.1-62.3,47.5-104.3c-13.1-35.1-26.9-69.9-41.5-104.5
			c-14.3-34.7-30.7-68.7-46.3-102.9c-7.5-17.2-16.8-33.8-25.2-50.8c-8.5-16.9-17.1-33.7-26.6-50.2c-18.3-33.3-37.7-66.2-59.8-98.3
			c-5.3-7.6-14.3-12.4-24.1-11.8c-15.2,0.9-26.6,13.9-25.8,29c2.3,38.8,7.3,76.7,13.4,114.2c2.7,18.9,6.3,37.4,10,56
			c3.8,18.5,6.7,37.3,11.4,55.5c8.2,34.7,16,69.6,25.4,103.9c-46.2-1-92.5-1.2-138.7-0.3l-9.1,0.1c-8,0.2-16,1.7-23.9,4.6
			c-39.1,14.3-59.3,57.6-45,96.7c10.9,29.9,21.8,59.8,34.1,89.3c12.3,29.6,23.5,59.3,37.3,88.4c12.8,29.3,26.4,58.4,41.2,87.2
			c14.5,28.9,29.8,57.4,47.1,85.4c4.9,8.1,14,13.4,24.1,13.1c15.1-0.5,26.9-13.1,26.4-28.1c-1-32.9-3.8-65.2-7.6-97.3
			c-3.6-32.1-8.1-63.9-13.5-95.5c-3.9-26.8-9.3-53.1-14.6-79.5L2163,1388.8L2163,1388.8z"/>
	</g>
</g>
</svg>
