<svg width="20" height="20" viewBox="0 0 20 20" fill="none" xmlns="http://www.w3.org/2000/svg">
<path d="M16.3234 12.1678C15.8063 12.1678 15.2891 12.3083 14.8661 12.4957C14.725 12.3257 13.2668 10.9816 11.3404 10.3409C13.1267 9.17011 14.1609 7.10995 13.8784 4.90837C13.5493 2.37942 11.4809 0.3188 8.94242 0.0378057C7.3441 -0.149524 5.74578 0.365632 4.52354 1.44278C3.3013 2.51992 2.64317 4.01855 2.64317 5.65768C2.64317 7.57781 3.63036 9.35744 5.22868 10.3877C3.25429 11.0429 1.56195 12.4015 0.38672 14.1343C-0.271411 15.1646 -0.0833732 16.5696 0.903823 17.2721C3.11373 18.818 5.65224 19.661 8.33177 19.661C11.3902 19.661 13.8902 18.4438 14.3602 18.0622C14.9154 18.5 15.5975 18.7244 16.3704 18.7244C18.2037 18.7244 19.661 17.2726 19.661 15.4461C19.614 13.6196 18.1567 12.1678 16.3234 12.1678ZM3.63083 5.61132C3.63083 4.30001 4.19495 2.98871 5.18214 2.0989C6.07532 1.30275 7.15653 0.928088 8.28476 0.928088C8.47279 0.928088 8.66083 0.928088 8.84887 0.974921C10.9643 1.20908 12.7036 2.89505 12.9387 5.0025C13.2212 7.20362 11.9515 9.26424 9.83607 10.0136L8.33177 10.5755L6.78046 10.0136C4.90009 9.35791 3.63083 7.57828 3.63083 5.61132ZM1.56242 16.4764C0.998312 16.0549 0.857284 15.2119 1.23336 14.6031C2.4556 12.7298 4.477 11.3717 6.68644 10.9502L8.33177 10.6224L9.97709 10.9502C11.5284 11.2312 12.9387 11.98 14.1139 13.0577C13.4558 13.6196 13.0327 14.5095 13.0327 15.4461C13.0327 16.1767 13.2593 16.8169 13.6631 17.369C12.4004 18.1118 10.34 18.7244 8.33177 18.7244C5.88728 18.7244 3.53682 17.9282 1.56242 16.4764ZM17.5456 17.0852L16.3234 16.4296L15.1011 17.0852L15.3362 15.7271L14.3485 14.7905L15.7118 14.6036L16.3234 13.3855L16.9345 14.6036L18.2977 14.7905L17.3101 15.7271L17.5456 17.0852Z" fill="currentColor"/>
</svg>
