<?xml version="1.0" encoding="utf-8"?>
<!-- Generator: Adobe Illustrator 25.0.0, SVG Export Plug-In . SVG Version: 6.00 Build 0)  -->
<svg version="1.1" id="Layer_1" xmlns="http://www.w3.org/2000/svg" xmlns:xlink="http://www.w3.org/1999/xlink" x="0px" y="0px"
	 viewBox="0 0 4000 2352.9" style="enable-background:new 0 0 4000 2352.9;" xml:space="preserve">
<style type="text/css">
	.st01{fill-rule:evenodd;clip-rule:evenodd;fill:#C6EFAB;}
	.st1{fill-rule:evenodd;clip-rule:evenodd;fill:#FFFFFF;}
	.st2{fill:#FFFFFF;}
	.st3{fill:#C6EFAB;}
	.st4{fill-rule:evenodd;clip-rule:evenodd;fill:#007438;}
	.st5{fill-rule:evenodd;clip-rule:evenodd;fill:#8ACF21;}
</style>
<g>
	<ellipse class="st01" cx="2197" cy="2208" rx="853.6" ry="92.5"/>
	<path class="st1" d="M2612.8,277.3c41.4-88.1,131-149.2,234.7-149.2c115.5,0,213.4,75.7,246.9,180.1c74.7,4.6,134.7,64.5,134,142.5
		c-0.1,7.4-768.2,5.1-768.2,0c-0.4-118.1,40.1-174.5,133.5-174.5C2600.1,276.3,2606.5,276.6,2612.8,277.3z"/>
	<path class="st1" d="M2026.2,354.6c-59.8-127.3-189.2-215.5-339-215.5c-166.8,0-308.3,109.3-356.6,260.1
		c-107.9,6.6-194.6,93.1-193.5,205.9c0.1,10.6,1109.6,7.3,1109.6,0c0.6-170.6-57.9-252.1-192.9-252.1
		C2044.5,353.1,2035.3,353.6,2026.2,354.6L2026.2,354.6z"/>
	<g>
		<path class="st01" d="M3129.3,1810l66.1,66.1c8.3,8.3,21.9,8.3,30.2,0c8.3-8.3,8.3-21.9,0-30.2l-66.1-66.1
			c-8.3-8.3-21.9-8.3-30.2,0C3121,1788.1,3121,1801.6,3129.3,1810z"/>
		<path class="st01" d="M3195.3,1779.8l-66.1,66.1c-8.3,8.3-8.3,21.9,0,30.2c8.3,8.3,21.9,8.3,30.2,0l66.1-66.1
			c8.3-8.3,8.3-21.9,0-30.2C3217.2,1771.5,3203.7,1771.5,3195.3,1779.8z"/>
		<path class="st01" d="M1020.4,921.1l66.1,66.1c8.3,8.3,21.8,8.3,30.2,0c8.3-8.3,8.3-21.9,0-30.2l-66.1-66.1
			c-8.3-8.3-21.9-8.3-30.2,0C1012,899.3,1012,912.8,1020.4,921.1z"/>
		<path class="st01" d="M1086.4,890.9l-66.1,66.1c-8.3,8.3-8.3,21.9,0,30.2c8.3,8.3,21.9,8.3,30.2,0l66.1-66.1
			c8.3-8.3,8.3-21.9,0-30.2C1108.3,882.6,1094.7,882.6,1086.4,890.9z"/>
		<path class="st01" d="M2861.2,661.7l66.1,66.1c8.3,8.3,21.9,8.3,30.2,0c8.3-8.3,8.3-21.9,0-30.2l-66.1-66.1
			c-8.3-8.3-21.9-8.3-30.2,0C2852.9,639.8,2852.9,653.3,2861.2,661.7z"/>
		<path class="st01" d="M2927.3,631.5l-66.1,66.1c-8.3,8.3-8.3,21.9,0,30.2c8.3,8.3,21.9,8.3,30.2,0l66.1-66.1
			c8.3-8.3,8.3-21.9,0-30.2C2949.1,623.2,2935.6,623.2,2927.3,631.5z"/>
	</g>
	<path class="st2" d="M1191.1,1486.9c151.1-410.8,546.3-704,1009.8-704c368.3,0,693.5,185.1,887.3,467.3l-0.5-0.7
		c50.3,73.2,91.8,152.8,122.9,237.4c-31.1,84.6-72.6,164.3-122.9,237.4l0.5-0.7c-193.8,282.1-519,467.3-887.3,467.3
		C1737.4,2190.9,1342.2,1897.7,1191.1,1486.9z"/>
	<path class="st3" d="M2189.2,768.2c-395,0-715.2,320.2-715.2,715.2c0,395,320.2,715.1,715.2,715.1c394.9,0,715.1-320.2,715.1-715.1
		C2904.3,1088.4,2584.1,768.2,2189.2,768.2L2189.2,768.2z M2538.9,1148.6v676.1h-676v-676.1H2538.9z"/>
	<path class="st4" d="M3105.4,1736.2c-197.7,287.5-529.2,476.1-904.5,476c-472.7,0-875.7-299.1-1029.8-718c-1.7-4.8-1.7-10,0-14.7
		c70.9-192.9,194.7-360.4,353.7-485c9.3-7.3,22.7-5.6,30,3.6c7.3,9.3,5.6,22.7-3.6,30c-150.8,118.1-268.6,276.4-337.2,458.8
		c150.1,398.7,535.5,682.7,987,682.7c361,0,679.7-181.5,869.7-458.1c6.6-9.7,19.9-12.2,29.6-5.5c9.7,6.6,12.3,19.8,5.7,29.6
		L3105.4,1736.2L3105.4,1736.2L3105.4,1736.2z"/>
	<path class="st4" d="M3071.1,1262.9l-0.5-0.6c-190-276.6-508.7-458.1-869.7-458.1c-93.8,0-184.7,12.2-271.3,35.2
		c-11.4,3-23.1-3.8-26.1-15.2c-3-11.4,3.8-23.1,15.2-26.1c90.1-23.9,184.7-36.6,282.2-36.6c374.9,0,706,188.1,903.8,474.9
		c0.2,0.3,0.5,0.6,0.7,0.9c51.3,74.6,93.7,155.8,125.4,242.2c4.1,11.1-1.6,23.3-12.7,27.4c-11.1,4.1-23.3-1.6-27.4-12.7
		C3160.3,1411.8,3119.9,1334.2,3071.1,1262.9L3071.1,1262.9z"/>
	<path class="st5" d="M1980.5,1210.4V1339c0,11.4-9.3,20.7-20.7,20.7s-20.7-9.3-20.7-20.7v-149.3c0-11.4,9.3-20.7,20.7-20.7H2109
		c11.4,0,20.7,9.3,20.7,20.7s-9.3,20.7-20.7,20.7H1980.5L1980.5,1210.4z"/>
	<path class="st5" d="M2532.9,1210.4h-128.5c-11.4,0-20.7-9.3-20.7-20.7c0-11.4,9.3-20.7,20.7-20.7h149.2c11.4,0,20.7,9.3,20.7,20.7
		V1339c0,11.4-9.3,20.7-20.7,20.7c-11.4,0-20.7-9.3-20.7-20.7V1210.4z"/>
	<path class="st5" d="M1886.5,1801.2h146.3c13,0,23.6,10.6,23.6,23.6c0,13-10.6,23.6-23.6,23.6h-169.9c-13,0-23.6-10.6-23.6-23.6
		v-169.9c0-13,10.6-23.6,23.6-23.6s23.6,10.6,23.6,23.6L1886.5,1801.2L1886.5,1801.2z"/>
	<path class="st5" d="M2532.9,1762.9v-128.5c0-11.4,9.3-20.7,20.7-20.7c11.4,0,20.7,9.3,20.7,20.7v149.3c0,11.4-9.3,20.7-20.7,20.7
		h-149.2c-11.4,0-20.7-9.3-20.7-20.7c0-11.4,9.3-20.7,20.7-20.7H2532.9z"/>
	<path class="st5" d="M2224.5,1224.9v-173.8c0-13-10.6-23.6-23.6-23.6c-13,0-23.6,10.6-23.6,23.6v173.8c0,13,10.6,23.6,23.6,23.6
		C2213.9,1248.5,2224.5,1237.9,2224.5,1224.9z"/>
	<path class="st5" d="M2224.5,1922.3v-173.8c0-13-10.6-23.6-23.6-23.6c-13,0-23.6,10.6-23.6,23.6v173.8c0,13,10.6,23.6,23.6,23.6
		C2213.9,1945.9,2224.5,1935.3,2224.5,1922.3z"/>
	<path class="st5" d="M2486.7,1507.4h152.7c11.4,0,20.7-9.3,20.7-20.7c0-11.4-9.3-20.7-20.7-20.7h-152.7c-11.4,0-20.7,9.3-20.7,20.7
		C2466,1498.1,2475.2,1507.4,2486.7,1507.4z"/>
	<path class="st5" d="M1765.3,1510.3h173.8c13,0,23.6-10.6,23.6-23.6s-10.6-23.6-23.6-23.6h-173.8c-13,0-23.6,10.6-23.6,23.6
		C1741.7,1499.7,1752.3,1510.3,1765.3,1510.3z"/>
</g>
</svg>
